<svg width="220" height="220" viewBox="0 0 220 220" fill="none" xmlns="http://www.w3.org/2000/svg">
<rect width="220" height="220" rx="110" fill="#298B33" fill-opacity="0.2"/>
<rect x="30" y="30" width="160" height="160" rx="80" fill="#298B33"/>
<path d="M148.123 91.1225L100.123 139.122C99.8441 139.401 99.5132 139.623 99.149 139.774C98.7848 139.925 98.3944 140.002 98.0002 140.002C97.606 140.002 97.2156 139.925 96.8514 139.774C96.4872 139.623 96.1563 139.401 95.8777 139.122L74.8777 118.122C74.3148 117.56 73.9985 116.796 73.9985 116C73.9985 115.204 74.3148 114.44 74.8777 113.877C75.4406 113.315 76.2041 112.998 77.0002 112.998C77.7963 112.998 78.5598 113.315 79.1227 113.877L98.0002 132.759L143.878 86.8775C144.441 86.3145 145.204 85.9983 146 85.9983C146.796 85.9983 147.56 86.3145 148.123 86.8775C148.686 87.4404 149.002 88.2039 149.002 89C149.002 89.7961 148.686 90.5595 148.123 91.1225Z" fill="white"/>
</svg>
